HIERARCHY
ROOT Hips
{
	OFFSET -0.001795 -0.223333 0.028219
	CHANNELS 6 Xposition Yposition Zposition Zrotation Yrotation Xrotation 
	JOINT LeftUpLeg
	{
		OFFSET 0.069520 -0.091406 -0.006815
		CHANNELS 3 Zrotation Yrotation Xrotation
		JOINT LeftLeg
		{
			OFFSET 0.034277 -0.375199 -0.004496
			CHANNELS 3 Zrotation Yrotation Xrotation
			JOINT LeftFoot
			{
				OFFSET -0.013596 -0.397961 -0.043693
				CHANNELS 3 Zrotation Yrotation Xrotation
				JOINT LeftToe
				{
					OFFSET 0.026358 -0.055791 0.119288
					CHANNELS 3 Zrotation Yrotation Xrotation
					End Site
					{
						OFFSET 0.000000 0.000000 0.000000
					}
				}
			}
		}
	}
	JOINT RightUpLeg
	{
		OFFSET -0.067670 -0.090522 -0.004320
		CHANNELS 3 Zrotation Yrotation Xrotation
		JOINT RightLeg
		{
			OFFSET -0.038290 -0.382569 -0.008850
			CHANNELS 3 Zrotation Yrotation Xrotation
			JOINT RightFoot
			{
				OFFSET 0.015774 -0.398415 -0.042312
				CHANNELS 3 Zrotation Yrotation Xrotation
				JOINT RightToe
				{
					OFFSET -0.025372 -0.048144 0.123348
					CHANNELS 3 Zrotation Yrotation Xrotation
					End Site
					{
						OFFSET 0.000000 0.000000 0.000000
					}
				}
			}
		}
	}
	JOINT Spine
	{
		OFFSET -0.002533 0.108963 -0.026696
		CHANNELS 3 Zrotation Yrotation Xrotation
		JOINT Spine1
		{
			OFFSET 0.005487 0.135180 0.001092
			CHANNELS 3 Zrotation Yrotation Xrotation
			JOINT Spine2
			{
				OFFSET 0.001457 0.052922 0.025425
				CHANNELS 3 Zrotation Yrotation Xrotation
				JOINT Neck
				{
					OFFSET -0.002778 0.213870 -0.042857
					CHANNELS 3 Zrotation Yrotation Xrotation
					JOINT Head
					{
						OFFSET 0.005152 0.064970 0.051349
						CHANNELS 3 Zrotation Yrotation Xrotation
						End Site
						{
							OFFSET 0.000000 0.000000 0.000000
						}
					}
				}
				JOINT LeftShoulder
				{
					OFFSET 0.078845 0.121749 -0.034090
					CHANNELS 3 Zrotation Yrotation Xrotation
					JOINT LeftArm
					{
						OFFSET 0.090977 0.030469 -0.008868
						CHANNELS 3 Zrotation Yrotation Xrotation
						JOINT LeftForeArm
						{
							OFFSET 0.259612 -0.012772 -0.027456
							CHANNELS 3 Zrotation Yrotation Xrotation
							JOINT LeftHand
							{
								OFFSET 0.249234 0.008986 -0.001171
								CHANNELS 3 Zrotation Yrotation Xrotation
								End Site
								{
									OFFSET 0.000000 0.000000 0.000000
								}
							}
						}
					}
				}
				JOINT RightShoulder
				{
					OFFSET -0.081759 0.118833 -0.038615
					CHANNELS 3 Zrotation Yrotation Xrotation
					JOINT RightArm
					{
						OFFSET -0.096012 0.032551 -0.009143
						CHANNELS 3 Zrotation Yrotation Xrotation
						JOINT RightForeArm
						{
							OFFSET -0.253742 -0.013329 -0.021401
							CHANNELS 3 Zrotation Yrotation Xrotation
							JOINT RightHand
							{
								OFFSET -0.255298 0.007772 -0.005559
								CHANNELS 3 Zrotation Yrotation Xrotation
								End Site
								{
									OFFSET 0.000000 0.000000 0.000000
								}
							}
						}
					}
				}
			}
		}
	}
}
MOTION
Frames: 5
Frame Time: 0.050000
-0.177680 0.961598 0.026551 2.430346 39.900805 2.493964 0.701706 -0.249854 -3.078778 3.945993 -0.411336 2.352107 -9.926423 -6.651136 12.009189 0.000000 0.000000 0.000000 -1.931519 -0.483933 2.631677 2.479925 -0.566942 -0.279004 -15.274538 -30.081768 15.546292 0.000000 0.000000 0.000000 4.233932 -0.241786 2.184915 -5.908815 2.170426 -26.066502 3.043958 22.573155 28.201638 12.423380 2.747243 -28.643743 0.000000 0.000000 0.000000 8.431578 -19.660094 7.158073 6.217970 -43.781132 -12.346606 92.982380 -29.542964 -49.217200 0.000000 0.000000 0.000000 12.543212 12.486525 14.410517 24.530647 68.370157 14.664856 -53.940595 23.747530 -6.197941 0.000000 0.000000 0.000000 
-0.179910 0.961525 0.029495 3.194550 42.386490 3.151679 0.091271 -0.236955 -3.364311 4.411401 -0.390356 1.809400 -11.736210 -7.653455 13.801743 0.000000 0.000000 0.000000 -2.510026 -0.632207 3.339472 3.316891 -0.758206 -1.317909 -17.170823 -32.724128 17.264376 0.000000 0.000000 0.000000 3.979126 -0.257610 2.520931 -5.922064 2.019048 -27.171462 3.788934 24.019268 29.074746 13.007466 3.086484 -29.389558 0.000000 0.000000 0.000000 10.164210 -19.935549 7.885477 9.835783 -46.090305 -16.053019 89.644128 -29.946217 -48.131489 0.000000 0.000000 0.000000 11.091431 13.062146 14.526894 16.119929 70.530487 10.833029 -56.075546 18.964675 -4.472474 0.000000 0.000000 0.000000 
-0.180424 0.961420 0.031614 4.211274 44.533936 4.006821 -0.738810 -0.203716 -3.504155 4.647390 -0.383708 1.640629 -12.877413 -8.636327 14.457181 0.000000 0.000000 0.000000 -3.038933 -0.769682 3.923929 3.369605 -0.790274 -1.917490 -18.008611 -33.922370 17.857561 0.000000 0.000000 0.000000 3.873182 -0.231136 2.168602 -5.915703 2.030862 -26.991380 4.266989 24.841114 29.360518 13.003019 3.574514 -30.033502 0.000000 0.000000 0.000000 12.462750 -19.880764 8.867945 13.530367 -47.847031 -19.937425 85.037981 -29.651922 -45.502076 0.000000 0.000000 0.000000 9.236864 14.335337 14.589521 9.653258 70.488081 7.473835 -57.239671 15.460234 -3.021061 0.000000 0.000000 0.000000 
-0.179836 0.961647 0.033247 4.991204 46.909744 4.776044 -1.197415 -0.175314 -3.489345 4.718099 -0.307558 0.785983 -14.595284 -9.116125 16.443347 0.000000 0.000000 0.000000 -3.309288 -0.929883 4.729800 3.750703 -0.895330 -2.635266 -19.629000 -35.876649 19.508721 0.000000 0.000000 0.000000 3.885464 -0.226497 2.009156 -5.967951 1.973436 -27.307700 4.545502 25.067022 29.578373 12.838278 3.994248 -30.299849 0.000000 0.000000 0.000000 14.332725 -19.852805 9.713283 17.497099 -49.030392 -23.858734 80.710241 -29.122254 -42.572165 0.000000 0.000000 0.000000 8.218380 14.668408 14.560649 6.084865 69.678107 5.580844 -59.646756 13.478762 -1.994647 0.000000 0.000000 0.000000 
-0.178576 0.961411 0.034582 6.088001 49.192693 5.872924 -1.792280 -0.153877 -3.636769 4.724748 -0.279444 0.530819 -15.957755 -10.284506 17.211397 0.000000 0.000000 0.000000 -3.605470 -1.078355 5.362848 3.417115 -0.847195 -3.362805 -20.942688 -37.234756 21.005815 0.000000 0.000000 0.000000 3.727534 -0.220182 1.942676 -5.859270 1.945728 -27.304245 4.795964 24.696207 29.698773 11.996846 4.624646 -30.375576 0.000000 0.000000 0.000000 15.221425 -19.743113 10.112838 20.755948 -49.295096 -26.473615 77.628426 -28.034319 -39.704790 0.000000 0.000000 0.000000 7.848256 14.957119 14.779629 2.731740 68.575530 3.514282 -61.118216 13.145531 -1.813949 0.000000 0.000000 0.000000 
